# xmcd
#
# Track frame offsets: 
#        150
#        26645
#        44657
#        60327
#        66285
#        87565
#        98920
#        109815
#        124790
#        140705
#        157652
#        168625
#        184690
#        199295
#        216262
#        235480
#
# Disc length: 3320 seconds
#
# Revision: 0
# Processed by: cddbd v1.5.2PL0 Copyright (c) Steve Scherf et al.
# Submitted via: ExactAudioCopy v1.3
#
DISCID=ee0cf610
DTITLE=Willie Logan - Rock Guitar Plays John Lennon
DYEAR=2000
DGENRE=Rock
TTITLE0=#9 Dream
TTITLE1=Whatever Gets You Thru The Night
TTITLE2=Imagine
TTITLE3=Watching The Wheels
TTITLE4=I'm Losing You
TTITLE5=Cry Baby Cry
TTITLE6=Love
TTITLE7=Out The Blue
TTITLE8=Nobody Told Me
TTITLE9=I Know
TTITLE10=You've Got To Hide Your Love Away
TTITLE11=Watching The Wheels
TTITLE12=Jealous Guy
TTITLE13=Revolution
TTITLE14=Woman
TTITLE15=A Hole In The Ocean
EXTD=
EXTT0=
EXTT1=
EXTT2=
EXTT3=
EXTT4=
EXTT5=
EXTT6=
EXTT7=
EXTT8=
EXTT9=
EXTT10=
EXTT11=
EXTT12=
EXTT13=
EXTT14=
EXTT15=
PLAYORDER=
